<?xml version="1.0" encoding="UTF-8"?><svg id="uuid-b9edce59-84a7-4d48-ab68-2f9688414797" xmlns="http://www.w3.org/2000/svg" width="632" height="332" xmlns:xlink="http://www.w3.org/1999/xlink" viewBox="0 0 632 332"><defs><style>.uuid-fbd04e2d-0b5a-4a33-a240-367888caa471,.uuid-3769a911-5d47-407c-843f-53ff268ef699,.uuid-16a2f683-394f-4875-8e3a-89a0af34a0fb,.uuid-1e529ffc-42ef-4a51-b620-184ebf4cd5d0,.uuid-5e7b5ca1-93fe-44c1-82fb-94cf9909a107{fill:none;}.uuid-d63fd163-3a6a-47d9-af0f-e238749941e9{fill:#f0f0f0;}.uuid-0abb63ef-1c1c-456a-8d2a-b74d585523d4{fill:#202020;}.uuid-42121807-c0e0-4495-8790-23a1525ef55c{clip-path:url(#uuid-64e35323-0084-475a-b7f6-f3a9fb7fff71);}.uuid-7b15120d-c8d0-4deb-9e72-c383e0cec843,.uuid-c9a05e0c-2e24-4902-a545-3e1da15047fb{fill:#606060;}.uuid-7b15120d-c8d0-4deb-9e72-c383e0cec843,.uuid-c9a05e0c-2e24-4902-a545-3e1da15047fb,.uuid-30ebcff0-67ee-4964-8e8d-fb90e8bcd089,.uuid-de4bf938-6e79-4bba-a557-e27c93d6d902,.uuid-16a2f683-394f-4875-8e3a-89a0af34a0fb{stroke:#f0f0f0;}.uuid-7b15120d-c8d0-4deb-9e72-c383e0cec843,.uuid-16a2f683-394f-4875-8e3a-89a0af34a0fb{stroke-miterlimit:10;}.uuid-3769a911-5d47-407c-843f-53ff268ef699{isolation:isolate;opacity:.2;stroke:#000;stroke-miterlimit:20;}.uuid-30ebcff0-67ee-4964-8e8d-fb90e8bcd089{fill:gray;}.uuid-de4bf938-6e79-4bba-a557-e27c93d6d902{fill:#404040;}.uuid-7219e765-f736-4e5f-9cae-bc6ceb4ca003{clip-path:url(#uuid-dc3382db-5245-4401-a334-26b869a202db);}.uuid-1e529ffc-42ef-4a51-b620-184ebf4cd5d0{stroke:#505050;}.uuid-5e7b5ca1-93fe-44c1-82fb-94cf9909a107{stroke:#404040;}</style><clipPath id="uuid-dc3382db-5245-4401-a334-26b869a202db"><rect class="uuid-fbd04e2d-0b5a-4a33-a240-367888caa471" width="632" height="332"/></clipPath><clipPath id="uuid-64e35323-0084-475a-b7f6-f3a9fb7fff71"><polygon class="uuid-fbd04e2d-0b5a-4a33-a240-367888caa471" points="-209.995 210.402 -209.995 210.402 -80.068 210.271 -46.431 209.985 -23.835 209.548 -6.374 208.962 8.262 208.218 20.844 207.325 32.142 206.267 42.413 205.046 51.656 203.697 60.386 202.171 68.603 200.481 76.563 198.583 84.01 196.552 91.2 194.336 98.133 191.947 105.065 189.294 111.742 186.479 118.418 183.397 124.837 180.174 131.256 176.693 137.676 172.951 144.095 168.948 150.514 164.688 157.19 159.991 164.123 154.841 171.313 149.224 178.76 143.14 186.976 136.155 196.477 127.801 210.086 115.528 227.546 99.82 236.276 92.243 243.722 86.051 250.142 80.975 256.047 76.563 261.696 72.61 267.089 69.108 272.224 66.043 277.103 63.395 281.725 61.138 286.347 59.139 290.968 57.409 295.334 56.031 299.699 54.909 304.064 54.048 308.429 53.453 312.794 53.126 317.159 53.07 321.524 53.285 325.89 53.77 330.255 54.522 334.62 55.538 338.985 56.811 343.35 58.337 347.972 60.218 352.594 62.361 357.473 64.896 362.351 67.695 367.487 70.907 372.879 74.552 378.528 78.639 384.691 83.377 391.367 88.79 398.813 95.105 407.8 103.011 421.409 115.294 438.356 130.536 447.857 138.804 456.074 145.688 463.52 151.663 470.71 157.163 477.643 162.191 484.319 166.764 490.738 170.901 497.157 174.78 503.576 178.397 509.996 181.753 516.415 184.853 523.091 187.812 529.767 190.507 536.7 193.041 543.633 195.318 550.823 197.424 558.269 199.35 566.229 201.146 574.446 202.74 583.176 204.176 592.676 205.474 602.947 206.609 613.988 207.57 626.313 208.384 640.436 209.057 657.126 209.588 677.924 209.982 706.169 210.242 752.132 210.374 841.745 210.403 -209.995 210.402"/></clipPath></defs><g class="uuid-7219e765-f736-4e5f-9cae-bc6ceb4ca003"><rect class="uuid-0abb63ef-1c1c-456a-8d2a-b74d585523d4" width="632" height="332"/><g id="uuid-e74aa6f9-fb34-4531-880f-e6b5f1534cf6"><g id="uuid-db7af650-f655-484c-b3c5-17601578d8f5"><line class="uuid-3769a911-5d47-407c-843f-53ff268ef699" x1="158.13" x2="158.13" y2="210.415"/><line class="uuid-3769a911-5d47-407c-843f-53ff268ef699" x1="105.543" x2="105.543" y2="210.415"/><line class="uuid-3769a911-5d47-407c-843f-53ff268ef699" x1="52.956" y1=".09" x2="52.956" y2="210.505"/><line class="uuid-3769a911-5d47-407c-843f-53ff268ef699" x1=".368" y1=".09" x2=".368" y2="210.505"/><line class="uuid-3769a911-5d47-407c-843f-53ff268ef699" x1="210.717" x2="210.717" y2="210.415"/><line class="uuid-3769a911-5d47-407c-843f-53ff268ef699" x1="263.304" x2="263.304" y2="210.415"/><line class="uuid-3769a911-5d47-407c-843f-53ff268ef699" x1="315.891" x2="315.891" y2="210.415"/><line class="uuid-3769a911-5d47-407c-843f-53ff268ef699" x1="368.478" x2="368.478" y2="210.415"/><line class="uuid-3769a911-5d47-407c-843f-53ff268ef699" x1="421.065" x2="421.065" y2="210.415"/><line class="uuid-3769a911-5d47-407c-843f-53ff268ef699" x1="473.652" x2="473.652" y2="210.415"/><line class="uuid-3769a911-5d47-407c-843f-53ff268ef699" x1="526.239" x2="526.239" y2="210.415"/><line class="uuid-3769a911-5d47-407c-843f-53ff268ef699" x1="53.613" y1="210.415" x2="579.483" y2="210.415"/><line class="uuid-3769a911-5d47-407c-843f-53ff268ef699" x1=".368" y1="157.828" x2="631.398" y2="157.828"/><line class="uuid-3769a911-5d47-407c-843f-53ff268ef699" x1=".368" y1="105.241" x2="631.398" y2="105.241"/><line class="uuid-3769a911-5d47-407c-843f-53ff268ef699" x1=".368" y1="52.654" x2="631.398" y2="52.654"/><line class="uuid-3769a911-5d47-407c-843f-53ff268ef699" x1="578.826" x2="578.826" y2="210.415"/><line class="uuid-3769a911-5d47-407c-843f-53ff268ef699" x1="631.413" x2="631.413" y2="210.415"/><line class="uuid-1e529ffc-42ef-4a51-b620-184ebf4cd5d0" x1="158.13" x2="158.13" y2="210.415"/><line class="uuid-1e529ffc-42ef-4a51-b620-184ebf4cd5d0" x1="158.13" x2="158.13" y2="210.415"/><line class="uuid-1e529ffc-42ef-4a51-b620-184ebf4cd5d0" x1="105.543" x2="105.543" y2="210.415"/><line class="uuid-1e529ffc-42ef-4a51-b620-184ebf4cd5d0" x1="105.543" x2="105.543" y2="210.415"/><line class="uuid-1e529ffc-42ef-4a51-b620-184ebf4cd5d0" x1="52.956" y1=".09" x2="52.956" y2="210.505"/><line class="uuid-1e529ffc-42ef-4a51-b620-184ebf4cd5d0" x1="52.956" y1=".09" x2="52.956" y2="210.505"/><line class="uuid-1e529ffc-42ef-4a51-b620-184ebf4cd5d0" x1=".368" y1=".09" x2=".368" y2="210.505"/><line class="uuid-1e529ffc-42ef-4a51-b620-184ebf4cd5d0" x1=".368" y1=".09" x2=".368" y2="210.505"/><line class="uuid-1e529ffc-42ef-4a51-b620-184ebf4cd5d0" x1="210.717" x2="210.717" y2="210.415"/><line class="uuid-1e529ffc-42ef-4a51-b620-184ebf4cd5d0" x1="210.717" x2="210.717" y2="210.415"/><line class="uuid-1e529ffc-42ef-4a51-b620-184ebf4cd5d0" x1="263.304" x2="263.304" y2="210.415"/><line class="uuid-1e529ffc-42ef-4a51-b620-184ebf4cd5d0" x1="263.304" x2="263.304" y2="210.415"/><line class="uuid-1e529ffc-42ef-4a51-b620-184ebf4cd5d0" x1="315.891" x2="315.891" y2="210.415"/><line class="uuid-1e529ffc-42ef-4a51-b620-184ebf4cd5d0" x1="315.891" x2="315.891" y2="210.415"/><line class="uuid-1e529ffc-42ef-4a51-b620-184ebf4cd5d0" x1="368.478" x2="368.478" y2="210.415"/><line class="uuid-1e529ffc-42ef-4a51-b620-184ebf4cd5d0" x1="368.478" x2="368.478" y2="210.415"/><line class="uuid-1e529ffc-42ef-4a51-b620-184ebf4cd5d0" x1="421.065" x2="421.065" y2="210.415"/><line class="uuid-1e529ffc-42ef-4a51-b620-184ebf4cd5d0" x1="421.065" x2="421.065" y2="210.415"/><line class="uuid-1e529ffc-42ef-4a51-b620-184ebf4cd5d0" x1="473.652" x2="473.652" y2="210.415"/><line class="uuid-1e529ffc-42ef-4a51-b620-184ebf4cd5d0" x1="473.652" x2="473.652" y2="210.415"/><line class="uuid-1e529ffc-42ef-4a51-b620-184ebf4cd5d0" x1="526.239" x2="526.239" y2="210.415"/><line class="uuid-1e529ffc-42ef-4a51-b620-184ebf4cd5d0" x1="526.239" x2="526.239" y2="210.415"/><line class="uuid-1e529ffc-42ef-4a51-b620-184ebf4cd5d0" x1="53.613" y1="210.415" x2="579.483" y2="210.415"/><line class="uuid-1e529ffc-42ef-4a51-b620-184ebf4cd5d0" x1="53.613" y1="210.415" x2="579.483" y2="210.415"/><line class="uuid-1e529ffc-42ef-4a51-b620-184ebf4cd5d0" x1=".368" y1="157.828" x2="631.398" y2="157.828"/><line class="uuid-1e529ffc-42ef-4a51-b620-184ebf4cd5d0" x1=".368" y1="157.828" x2="631.398" y2="157.828"/><line class="uuid-1e529ffc-42ef-4a51-b620-184ebf4cd5d0" x1=".368" y1="105.241" x2="631.398" y2="105.241"/><line class="uuid-1e529ffc-42ef-4a51-b620-184ebf4cd5d0" x1=".368" y1="105.241" x2="631.398" y2="105.241"/><line class="uuid-1e529ffc-42ef-4a51-b620-184ebf4cd5d0" x1=".368" y1="52.654" x2="631.398" y2="52.654"/><line class="uuid-1e529ffc-42ef-4a51-b620-184ebf4cd5d0" x1=".368" y1="52.654" x2="631.398" y2="52.654"/><line class="uuid-1e529ffc-42ef-4a51-b620-184ebf4cd5d0" x1="578.826" x2="578.826" y2="210.415"/><line class="uuid-1e529ffc-42ef-4a51-b620-184ebf4cd5d0" x1="578.826" x2="578.826" y2="210.415"/><line class="uuid-1e529ffc-42ef-4a51-b620-184ebf4cd5d0" x1="631.413" x2="631.413" y2="210.415"/><line class="uuid-1e529ffc-42ef-4a51-b620-184ebf4cd5d0" x1="631.413" x2="631.413" y2="210.415"/></g><polyline class="uuid-5e7b5ca1-93fe-44c1-82fb-94cf9909a107" points="421.065 58.154 421.065 47.154 421.065 52.511 315.875 52.511 315.875 47.154 315.875 58.154"/></g><g id="uuid-6f0ee1df-9290-4210-a7ca-17164d35b43a"><g class="uuid-42121807-c0e0-4495-8790-23a1525ef55c"><g><rect class="uuid-de4bf938-6e79-4bba-a557-e27c93d6d902" x="210.701" width="210.348" height="210.402"/><rect class="uuid-7b15120d-c8d0-4deb-9e72-c383e0cec843" x="421.05" y=".09" width="105.174" height="210.312"/><rect class="uuid-c9a05e0c-2e24-4902-a545-3e1da15047fb" x="105.527" y=".09" width="105.174" height="210.312"/><rect class="uuid-30ebcff0-67ee-4964-8e8d-fb90e8bcd089" x=".353" y=".09" width="105.174" height="210.312"/><rect class="uuid-30ebcff0-67ee-4964-8e8d-fb90e8bcd089" x="526.224" width="105.174" height="210.402"/></g></g><path class="uuid-16a2f683-394f-4875-8e3a-89a0af34a0fb" d="m-209.995,210.402h0l129.927-.131,33.637-.285,22.596-.437,17.461-.586,14.636-.744,12.582-.893,11.298-1.058,10.271-1.221,9.244-1.349,8.73-1.526,8.217-1.69,7.96-1.898,7.446-2.031,7.19-2.215,6.933-2.389,6.933-2.653,6.676-2.816,6.676-3.082,6.419-3.222,6.419-3.481,6.419-3.742,6.419-4.003,6.419-4.26,6.676-4.696,6.933-5.151,7.19-5.617,7.446-6.084,8.217-6.985,9.501-8.354,13.609-12.273,17.46-15.708,8.73-7.576,7.446-6.192,6.419-5.076,5.906-4.412,5.649-3.953,5.392-3.502,5.135-3.065,4.879-2.648,4.622-2.257,4.622-1.999,4.622-1.73,4.365-1.378,4.365-1.123,4.365-.861,4.365-.595,4.365-.326,4.365-.056,4.365.215,4.365.485,4.365.752,4.365,1.015,4.365,1.274,4.365,1.525,4.622,1.881,4.622,2.144,4.879,2.535,4.879,2.799,5.136,3.212,5.392,3.645,5.649,4.088,6.163,4.738,6.676,5.413,7.446,6.315,8.987,7.906,13.609,12.283,16.947,15.242,9.501,8.267,8.217,6.884,7.446,5.976,7.19,5.499,6.933,5.029,6.676,4.572,6.419,4.138,6.419,3.879,6.419,3.617,6.419,3.357,6.419,3.1,6.676,2.958,6.676,2.696,6.933,2.534,6.933,2.277,7.19,2.106,7.446,1.926,7.96,1.796,8.217,1.594,8.73,1.436,9.5,1.297,10.271,1.135,11.041.961,12.325.815,14.122.673,16.69.531,20.799.394,28.245.26,45.962.132,89.614.028H-209.995Z"/><line class="uuid-16a2f683-394f-4875-8e3a-89a0af34a0fb" x1="315.875" y1="210.402" x2="315.875" y2="52.927"/><rect class="uuid-0abb63ef-1c1c-456a-8d2a-b74d585523d4" x="442.597" y="95.972" width="62.109" height="23.309"/><rect class="uuid-0abb63ef-1c1c-456a-8d2a-b74d585523d4" x="127.075" y="95.972" width="62.109" height="23.309"/><rect class="uuid-0abb63ef-1c1c-456a-8d2a-b74d585523d4" x="21.901" y="95.972" width="62.109" height="23.309"/><rect class="uuid-0abb63ef-1c1c-456a-8d2a-b74d585523d4" x="547.771" y="95.972" width="62.109" height="23.309"/><polyline class="uuid-16a2f683-394f-4875-8e3a-89a0af34a0fb" points="421.349 223.545 421.349 230.565 211.001 230.565 211.001 223.545"/><rect class="uuid-0abb63ef-1c1c-456a-8d2a-b74d585523d4" x="283.876" y="214.869" width="64" height="30"/><polyline class="uuid-16a2f683-394f-4875-8e3a-89a0af34a0fb" points="526.239 223.545 526.239 262.157 105.543 262.157 105.543 223.545"/><rect class="uuid-0abb63ef-1c1c-456a-8d2a-b74d585523d4" x="283.876" y="247.869" width="64" height="30"/><path class="uuid-d63fd163-3a6a-47d9-af0f-e238749941e9" d="m296.753,222.804c-.373-.343-.858-.539-1.364-.55-1.021-.003-1.981.488-2.574,1.319-.789,1.342-1.149,2.892-1.033,4.444l.022.088.176-.286c.526-.839,1.453-1.34,2.442-1.319.62-.013,1.233.131,1.782.418.395.242.751.542,1.056.891.342.373.63.791.858,1.243.313.745.47,1.546.462,2.354v.396c.002.319-.035.637-.11.946-.21.928-.684,1.775-1.363,2.441-.56.619-1.299,1.049-2.113,1.232-.288.064-.583.094-.879.088-.251.002-.501-.02-.748-.066-1.074-.197-2.015-.835-2.596-1.76-.947-1.688-1.398-3.61-1.299-5.544-.031-1.431.254-2.851.836-4.158.503-1.124,1.311-2.084,2.332-2.771.748-.543,1.649-.836,2.574-.836.746-.035,1.479.208,2.057.682.529.473.816,1.161.781,1.87.016.324-.099.641-.318.88-.224.224-.531.344-.848.33-.312.015-.617-.096-.847-.309-.222-.228-.338-.539-.319-.857-.043-.599.407-1.12,1.007-1.164.009,0,.018-.001.027-.002Zm-.968,5.28c-.367-.506-.959-.802-1.584-.792-.491-.02-.968.163-1.32.506-.805.97-1.193,2.22-1.078,3.476-.045.91.044,1.822.264,2.706.143.435.402.823.748,1.122.346.305.793.47,1.254.462.678.035,1.326-.281,1.717-.836.227-.327.371-.705.418-1.1.068-.614.098-1.231.088-1.849v-.704c.011-.632-.019-1.264-.088-1.892-.047-.395-.191-.772-.418-1.099h0Z"/><path class="uuid-d63fd163-3a6a-47d9-af0f-e238749941e9" d="m303.331,228.656c-.634-.393-1.196-.891-1.661-1.474-.685-1.085-.772-2.445-.23-3.608.316-.653.807-1.205,1.418-1.595.64-.408,1.387-.618,2.146-.605.926-.022,1.835.251,2.596.78.698.469,1.187,1.191,1.364,2.014.019.175.026.351.022.527.008.221-.006.442-.043.66-.301,1.072-1.023,1.977-2.002,2.508l-.265.177c.821.558,1.247.851,1.276.88,1.042.766,1.656,1.984,1.65,3.277.014,1.155-.462,2.263-1.31,3.048-.874.844-2.052,1.3-3.267,1.265-1.588.109-3.111-.648-3.982-1.98-.378-.565-.571-1.234-.551-1.914,0-1.597.947-2.917,2.839-3.96Zm-1.431,3.916c-.02.82.327,1.607.946,2.145.599.552,1.386.855,2.2.847.568.008,1.13-.12,1.639-.374.452-.215.837-.549,1.111-.968.242-.357.372-.779.374-1.21-.005-.642-.285-1.251-.77-1.672-.117-.117-.726-.535-1.826-1.254-.205-.132-.428-.275-.67-.43-.242-.153-.429-.274-.561-.362l-.176-.11-.265.132c-.843.503-1.487,1.279-1.826,2.2-.111.341-.17.697-.176,1.056Zm5.809-7.832c.014-.595-.208-1.172-.616-1.605-.396-.432-.921-.725-1.496-.836-.241-.02-.483-.028-.726-.022-.734-.017-1.442.269-1.958.792-.351.304-.552.746-.55,1.21-.015.602.285,1.169.791,1.496.074.074.544.382,1.408.924l1.276.836c.015-.014.11-.076.286-.186.142-.085.275-.184.397-.297.743-.536,1.185-1.395,1.188-2.311h0Z"/><path class="uuid-d63fd163-3a6a-47d9-af0f-e238749941e9" d="m312.262,234.707c-.023-.706.531-1.297,1.237-1.32.028,0,.055,0,.083,0,.358-.009.705.13.957.385.249.238.388.569.385.913.006.735-.585,1.336-1.32,1.342s-1.336-.585-1.342-1.32h0Z"/><path class="uuid-d63fd163-3a6a-47d9-af0f-e238749941e9" d="m319.457,225.84c-.352.018-.693-.119-.936-.374-.233-.267-.355-.614-.34-.968-.01-.815.355-1.59.989-2.102.644-.558,1.442-.907,2.288-1.001h.33c.514,0,.836.007.968.022.511.082,1.008.238,1.475.462.883.387,1.551,1.143,1.825,2.067.05.194.073.394.066.595.008.843-.276,1.662-.803,2.32-.518.669-1.217,1.177-2.014,1.463-.073.03-.073.052,0,.066.072.028.145.05.221.066.874.237,1.661.722,2.266,1.396.594.627.925,1.458.924,2.321,0,.604-.144,1.2-.418,1.738-.379.777-.98,1.424-1.727,1.858-.804.493-1.731.748-2.674.737-.896.017-1.782-.195-2.573-.616-.69-.347-1.23-.933-1.518-1.65-.153-.338-.228-.706-.22-1.077-.014-.377.134-.741.407-1.001.564-.518,1.432-.514,1.99.011.263.261.407.619.397.99.006.317-.094.627-.285.88-.19.248-.464.42-.77.483l-.154.044c.76.648,1.729,1,2.728.99.788.013,1.506-.446,1.826-1.166.291-.703.419-1.462.374-2.222v-.441c.138-1.13-.417-2.232-1.407-2.794-.437-.117-.889-.168-1.342-.153l-.924-.023-.066-.044c-.041-.112-.056-.233-.045-.352-.015-.114.008-.23.066-.33.027-.035.066-.058.11-.066.428-.001.855-.038,1.276-.11.645-.087,1.201-.498,1.474-1.089.354-.713.528-1.503.506-2.299.097-.729-.195-1.455-.77-1.914-.306-.204-.666-.311-1.034-.308-.692-.013-1.37.195-1.936.594-.072.039-.139.087-.199.143-.064.057-.123.12-.176.188l-.066.088c.045.015.096.029.154.044.294.03.561.181.737.418.196.243.301.546.297.858.007.334-.124.657-.362.891-.248.244-.587.376-.935.363Z"/><path class="uuid-d63fd163-3a6a-47d9-af0f-e238749941e9" d="m340.445,222.167c-.801.365-1.671.553-2.552.55-1.012-.006-2.01-.231-2.927-.66-.045-.015-.089-.034-.132-.055-.044-.022-.081-.041-.11-.056l-.044-.021c.018.067.04.134.066.198.16.603.234,1.225.22,1.848.046,1.126-.253,2.238-.857,3.189-.401.737-1.163,1.206-2.002,1.232-.52-.021-1.024-.189-1.452-.484-1.229-.919-1.895-2.409-1.76-3.938-.031-1.049.252-2.083.814-2.97.436-.747,1.174-1.269,2.024-1.431.123-.024.248-.038.374-.044.585.006,1.142.253,1.54.683.961.886,2.163,1.467,3.454,1.672.256.021.513.028.77.021.425,0,.69-.007.792-.021,1.315-.191,2.502-.895,3.3-1.958.038-.04.071-.084.1-.132.022-.039.048-.076.076-.11.02-.021.039-.043.056-.066.016-.024.039-.043.065-.055.029-.009.058-.016.088-.021.04-.008.08-.012.121-.012.128-.002.25.055.33.154.088.103.128.239.11.374-7.554,11.338-11.389,17.043-11.506,17.116-.058.059-.138.09-.221.088-.119,0-.233-.048-.318-.132-.091-.077-.143-.19-.144-.309.004-.071.027-.139.066-.197.015-.045,1.635-2.472,4.862-7.282,1.554-2.317,2.745-4.092,3.574-5.324.829-1.232,1.236-1.848,1.221-1.848Zm-7.392-1.387c-.258-.27-.616-.421-.989-.418-.32.013-.618.166-.815.418-.286.34-.476.75-.55,1.188-.102.662-.146,1.332-.132,2.002-.015.677.033,1.355.143,2.023.072.439.276.845.583,1.166.213.241.515.384.836.396h.088c.324-.021.625-.172.836-.418,1.379-1.895,1.379-4.463,0-6.358h0Zm5.61,12.034c-.032-1.046.252-2.077.815-2.959.439-.742,1.176-1.26,2.023-1.419.131-.025.263-.039.397-.044.822.042,1.567.498,1.979,1.21.603.96.902,2.079.858,3.212.048,1.133-.252,2.254-.858,3.212-.402.737-1.163,1.206-2.002,1.232-.52-.021-1.023-.189-1.452-.484-1.232-.927-1.897-2.425-1.76-3.96h0Zm4.158-3.168c-.258-.27-.617-.421-.99-.418-.32.013-.618.166-.815.418-.284.32-.475.712-.55,1.133-.089.675-.125,1.355-.109,2.035-.02.669.016,1.339.109,2.002.063.667.461,1.256,1.057,1.562.122.034.248.048.374.044h.088c.323-.021.625-.172.836-.418,1.379-1.895,1.379-4.463,0-6.358Z"/><path class="uuid-d63fd163-3a6a-47d9-af0f-e238749941e9" d="m292.353,267.359c.01.275-.072.546-.231.77-.145.199-.362.333-.604.374l-.089.022c0,.015.052.055.154.121.074.052.156.093.242.121.399.158.825.233,1.254.22.192.008.384-.007.572-.044.748-.208,1.386-.697,1.782-1.364.684-1.313.981-2.793.857-4.268v-.154l-.11.176c-.494.935-1.472,1.513-2.529,1.496-1.181-.003-2.291-.566-2.992-1.518-.833-.942-1.26-2.176-1.189-3.432-.024-.713.092-1.423.342-2.091.282-.621.682-1.181,1.177-1.65.725-.745,1.692-1.205,2.728-1.298l.066-.023h.11c.028,0,.076.004.143.011.055.007.11.011.165.012.214-.008.427.007.638.044,1.226.293,2.253,1.127,2.794,2.266.689,1.564,1.013,3.264.946,4.972.059,1.828-.399,3.635-1.32,5.215-.467.773-1.102,1.431-1.858,1.925-.676.447-1.467.687-2.277.692-.796.039-1.582-.189-2.233-.648-.573-.45-.89-1.153-.847-1.881,0-.821.389-1.232,1.166-1.232.595-.038,1.108.414,1.146,1.01.003.052.003.104-.001.156h0Zm2.222-11.594c-.204-.034-.41-.048-.616-.044-.538-.008-1.056.207-1.43.594-.307.32-.517.721-.605,1.155-.118.76-.166,1.53-.143,2.299-.011.793.026,1.587.11,2.376.051.513.28.992.648,1.353.371.349.866.536,1.375.518h.088c.765-.054,1.434-.535,1.728-1.243.382-.869.566-1.812.539-2.761.026-.825-.034-1.651-.177-2.464-.072-.423-.259-.819-.539-1.145-.248-.313-.591-.537-.978-.638Z"/><path class="uuid-d63fd163-3a6a-47d9-af0f-e238749941e9" d="m301.901,264.763c.334-.007.656.124.891.362.242.241.373.572.363.913.005.327-.132.639-.374.858-.222.223-.522.349-.836.352h-.154l.066.11c.224.474.574.878,1.012,1.166.476.314,1.036.475,1.606.462.946.056,1.833-.465,2.243-1.32.339-.898.482-1.858.418-2.815.103-1.056-.104-2.118-.594-3.059-.325-.455-.849-.725-1.408-.726-1.08-.037-2.086.543-2.596,1.496-.035.077-.092.142-.165.186-.104.029-.212.04-.319.033-.249,0-.389-.044-.418-.132-.029-.059-.044-1.342-.044-3.85,0-.44-.004-.961-.011-1.562-.008-.601-.011-.983-.011-1.144,0-.821.044-1.232.132-1.232.022-.026.054-.042.088-.044l.397.132c.929.377,1.923.571,2.926.572,1.029.003,2.048-.207,2.992-.616.088-.05.185-.08.286-.088.117,0,.176.132.176.396v.285c-1.089,1.376-2.757,2.165-4.511,2.135-.414.004-.828-.04-1.232-.132l-.22-.045v3.784c.932-.868,2.239-1.207,3.476-.901.979.247,1.835.841,2.409,1.672.629.885.957,1.95.935,3.036.017,1.292-.486,2.537-1.397,3.454-.89.95-2.142,1.478-3.443,1.451-.85.024-1.682-.248-2.353-.77-.291-.188-.539-.435-.727-.727-.455-.562-.744-1.24-.836-1.958,0-.044-.004-.113-.011-.209s-.011-.165-.011-.209c-.02-.357.107-.707.352-.968.24-.236.566-.363.903-.351Z"/><path class="uuid-d63fd163-3a6a-47d9-af0f-e238749941e9" d="m312.262,268.151c-.023-.706.531-1.297,1.237-1.32.028,0,.055,0,.083,0,.359-.009.705.131.957.386.249.238.388.569.385.913.005.735-.587,1.335-1.323,1.34-.733.005-1.332-.585-1.34-1.318h0Z"/><path class="uuid-d63fd163-3a6a-47d9-af0f-e238749941e9" d="m326.827,269.471c-.206-.044-1.152-.066-2.838-.066-1.76,0-2.743.022-2.948.066h-.197v-1.013h.682c.392.013.784-.024,1.166-.109.117-.029.214-.11.264-.22.015-.029.022-.425.022-1.189v-1.1h-5.698v-1.013l3.322-5.082c2.243-3.402,3.38-5.111,3.409-5.126.149-.046.307-.061.462-.044h.397l.132.132v10.12h2.024v1.013h-2.024v1.122c0,.601.004.953.011,1.056.006.1.05.194.121.264.399.154.828.214,1.254.176h.639v1.013h-.198Zm-3.718-4.642v-7.348l-4.818,7.326,2.398.022h2.42Z"/><path class="uuid-d63fd163-3a6a-47d9-af0f-e238749941e9" d="m340.445,255.611c-.801.366-1.671.553-2.552.55-1.012-.006-2.01-.231-2.927-.66-.045-.014-.089-.033-.132-.055-.044-.021-.081-.04-.11-.055l-.044-.023c.018.068.04.134.066.198.16.603.234,1.224.22,1.848.046,1.126-.253,2.239-.857,3.19-.402.737-1.163,1.206-2.002,1.232-.52-.021-1.024-.189-1.452-.484-1.229-.92-1.895-2.41-1.76-3.939-.031-1.049.252-2.083.814-2.97.436-.747,1.174-1.269,2.024-1.43.123-.024.248-.038.374-.044.585.006,1.142.252,1.54.682.961.886,2.163,1.467,3.454,1.672.256.021.513.029.77.023.425,0,.69-.008.792-.023,1.316-.191,2.502-.895,3.3-1.958.038-.04.071-.085.1-.132.022-.039.048-.075.076-.11.02-.02.039-.042.056-.065.016-.025.038-.044.065-.055.029-.009.058-.017.088-.023.04-.007.08-.011.121-.011.128-.002.249.055.33.153.088.103.128.239.11.374-7.554,11.338-11.389,17.043-11.506,17.116-.058.059-.138.09-.221.088-.119,0-.233-.048-.318-.132-.091-.077-.143-.189-.144-.308.004-.071.027-.139.066-.198.015-.044,1.635-2.471,4.862-7.282,1.554-2.317,2.745-4.092,3.574-5.324.829-1.232,1.236-1.848,1.221-1.848Zm-7.392-1.386c-.258-.27-.616-.421-.989-.418-.32.013-.618.166-.815.418-.286.339-.476.75-.55,1.188-.102.662-.146,1.332-.132,2.002-.015.678.033,1.355.143,2.024.072.439.276.845.583,1.166.213.24.515.383.836.396h.088c.324-.021.625-.172.836-.418,1.379-1.895,1.379-4.463,0-6.357h0Zm5.61,12.034c-.032-1.046.252-2.077.815-2.959.438-.743,1.176-1.26,2.023-1.419.131-.025.263-.039.397-.044.822.042,1.567.498,1.979,1.21.603.96.902,2.079.858,3.212.048,1.133-.252,2.254-.858,3.212-.402.737-1.163,1.205-2.002,1.231-.52-.021-1.023-.188-1.452-.483-1.231-.927-1.897-2.424-1.76-3.959h0Zm4.158-3.169c-.258-.27-.617-.421-.99-.418-.32.013-.618.166-.815.418-.285.319-.475.712-.55,1.133-.089.675-.125,1.355-.109,2.035-.02.669.016,1.339.109,2.002.063.667.461,1.255,1.057,1.561.122.034.248.049.374.044h.088c.323-.021.625-.172.836-.418,1.379-1.895,1.379-4.463,0-6.357Z"/><polyline class="uuid-16a2f683-394f-4875-8e3a-89a0af34a0fb" points="630.913 223.545 630.913 297.259 1.087 297.259 1.087 223.545"/><rect class="uuid-0abb63ef-1c1c-456a-8d2a-b74d585523d4" x="283.876" y="281.869" width="64" height="30"/><path class="uuid-d63fd163-3a6a-47d9-af0f-e238749941e9" d="m292.353,304.97c.01.275-.071.546-.23.771-.145.199-.363.333-.605.374l-.088.022c0,.015.051.055.154.121.074.052.155.093.241.121.399.158.826.233,1.255.22.191.008.383-.007.571-.044.748-.208,1.386-.697,1.782-1.364.685-1.312.983-2.792.858-4.268v-.154l-.11.176c-.495.935-1.472,1.513-2.53,1.496-1.181-.004-2.291-.566-2.992-1.518-.832-.943-1.259-2.176-1.188-3.432-.024-.712.092-1.423.341-2.091.282-.62.682-1.181,1.177-1.649.725-.745,1.693-1.205,2.728-1.298l.065-.022h.11c.029,0,.077.004.143.011.055.007.11.011.165.012.214-.008.428.007.639.044,1.226.294,2.253,1.127,2.794,2.266.688,1.564,1.012,3.264.946,4.972.059,1.828-.399,3.635-1.32,5.215-.467.773-1.103,1.431-1.859,1.925-.676.447-1.467.687-2.276.692-.796.039-1.582-.189-2.233-.648-.573-.451-.889-1.153-.847-1.881,0-.821.389-1.232,1.166-1.232.595-.037,1.108.415,1.145,1.011.003.052.003.104-.002.155h0Zm2.222-11.594c-.203-.034-.409-.048-.615-.044-.538-.008-1.056.207-1.431.594-.306.32-.516.721-.604,1.155-.118.76-.166,1.53-.143,2.299-.01.793.027,1.587.11,2.376.051.513.281.992.649,1.353.371.35.866.536,1.375.517h.088c.765-.053,1.433-.535,1.727-1.243.383-.869.567-1.812.539-2.761.026-.825-.033-1.651-.176-2.464-.072-.423-.259-.819-.539-1.145-.249-.313-.592-.537-.979-.637h0Z"/><path class="uuid-d63fd163-3a6a-47d9-af0f-e238749941e9" d="m303.353,304.97c.01.275-.071.546-.23.771-.145.199-.363.333-.605.374l-.088.022c0,.015.051.055.154.121.074.052.155.093.241.121.399.158.826.233,1.255.22.191.008.383-.007.571-.044.748-.208,1.386-.697,1.782-1.364.685-1.312.983-2.792.858-4.268v-.154l-.11.176c-.495.935-1.472,1.513-2.53,1.496-1.181-.004-2.291-.566-2.992-1.518-.832-.943-1.259-2.176-1.188-3.432-.024-.712.092-1.423.341-2.091.282-.62.682-1.181,1.177-1.649.725-.745,1.693-1.205,2.728-1.298l.065-.022h.11c.029,0,.077.004.143.011.055.007.11.011.165.012.214-.008.428.007.639.044,1.226.294,2.253,1.127,2.794,2.266.688,1.564,1.012,3.264.946,4.972.059,1.828-.399,3.635-1.32,5.215-.467.773-1.103,1.431-1.859,1.925-.676.447-1.467.687-2.276.692-.796.039-1.582-.189-2.233-.648-.573-.451-.889-1.153-.847-1.881,0-.821.389-1.232,1.166-1.232.595-.037,1.108.415,1.145,1.011.003.052.003.104-.002.155h0Zm2.222-11.594c-.203-.034-.409-.048-.615-.044-.538-.008-1.056.207-1.431.594-.306.32-.516.721-.604,1.155-.118.76-.166,1.53-.143,2.299-.01.793.027,1.587.11,2.376.051.513.281.992.649,1.353.371.35.866.536,1.375.517h.088c.765-.053,1.433-.535,1.727-1.243.383-.869.567-1.812.539-2.761.026-.825-.033-1.651-.176-2.464-.072-.423-.259-.819-.539-1.145-.249-.313-.592-.537-.979-.637h0Z"/><path class="uuid-d63fd163-3a6a-47d9-af0f-e238749941e9" d="m312.263,305.762c-.023-.706.531-1.297,1.237-1.32.028,0,.055,0,.083,0,.359-.009.705.131.957.386.249.238.388.569.385.913.005.735-.587,1.335-1.323,1.34-.733.005-1.332-.585-1.34-1.318h0Z"/><path class="uuid-d63fd163-3a6a-47d9-af0f-e238749941e9" d="m317.874,297.007c.015-.029.139-.829.374-2.398l.352-2.353c0-.029.147-.044.44-.044h.439v.088c0,.147.11.271.33.374.371.131.762.198,1.155.198.55.029,1.785.044,3.707.044h2.662v.858l-1.496,2.046c-.22.308-.469.65-.748,1.023-.279.374-.491.664-.638.869-.147.205-.235.33-.264.374-.843,1.454-1.312,3.094-1.364,4.773-.059.602-.095,1.423-.11,2.465,0,.205-.004.414-.011.627-.008.212-.011.385-.011.517v.198c-.064.257-.216.482-.43.638-.209.169-.469.262-.737.264-.322.012-.633-.121-.847-.362-.227-.283-.34-.639-.319-1.001,0-.221.03-.639.089-1.254.263-2.108.959-4.138,2.046-5.963.293-.469.909-1.356,1.848-2.661l1.013-1.387h-2.047c-1.343-.061-2.689-.017-4.025.132-.06.03-.14.191-.242.484-.098.339-.172.685-.221,1.034-.01.141-.032.281-.065.418v.066h-.88v-.067Z"/><path class="uuid-d63fd163-3a6a-47d9-af0f-e238749941e9" d="m340.446,293.222c-.801.366-1.671.553-2.552.55-1.012-.006-2.01-.231-2.927-.66-.045-.014-.09-.033-.132-.055-.044-.022-.081-.04-.11-.055l-.044-.022c.018.067.04.134.066.198.16.603.234,1.225.22,1.848.046,1.126-.254,2.239-.857,3.19-.402.737-1.163,1.206-2.002,1.232-.52-.021-1.024-.189-1.452-.484-1.229-.92-1.895-2.409-1.76-3.938-.031-1.049.252-2.083.814-2.97.436-.747,1.174-1.269,2.024-1.43.123-.024.248-.038.374-.044.585.006,1.142.253,1.54.682.961.886,2.163,1.467,3.454,1.672.256.021.513.029.77.022.425,0,.689-.008.792-.022,1.316-.191,2.502-.895,3.3-1.958.038-.04.071-.084.1-.132.022-.039.048-.075.076-.11.02-.02.039-.042.056-.065.016-.025.039-.044.065-.055.029-.009.058-.017.088-.022.04-.007.08-.011.121-.011.128-.002.249.055.33.153.088.103.128.239.11.374-7.554,11.338-11.389,17.043-11.506,17.116-.058.059-.138.09-.221.088-.119,0-.233-.048-.318-.132-.091-.077-.143-.189-.144-.308.004-.071.027-.139.066-.198.015-.044,1.635-2.471,4.862-7.282,1.554-2.317,2.745-4.092,3.574-5.324s1.236-1.848,1.221-1.848Zm-7.393-1.386c-.258-.27-.616-.421-.989-.418-.32.013-.618.166-.815.418-.286.339-.476.75-.55,1.188-.102.662-.146,1.332-.132,2.002-.015.678.033,1.355.143,2.024.072.439.276.845.583,1.166.213.24.515.383.836.396h.088c.324-.021.625-.172.836-.418,1.379-1.895,1.379-4.463,0-6.357h0Zm5.61,12.034c-.032-1.046.252-2.077.814-2.959.438-.743,1.176-1.26,2.023-1.419.131-.025.263-.039.397-.044.822.042,1.567.497,1.98,1.21.603.96.902,2.079.858,3.212.048,1.133-.252,2.254-.858,3.212-.402.737-1.163,1.205-2.002,1.231-.52-.021-1.023-.188-1.452-.483-1.231-.927-1.897-2.425-1.76-3.96h0Zm4.158-3.168c-.258-.27-.617-.421-.99-.418-.32.013-.618.166-.815.418-.285.319-.475.712-.55,1.133-.089.675-.125,1.355-.109,2.035-.02.669.016,1.339.109,2.002.063.667.461,1.255,1.057,1.562.122.034.248.048.374.044h.088c.323-.021.625-.172.836-.418,1.379-1.895,1.379-4.463,0-6.357h0Z"/><path class="uuid-d63fd163-3a6a-47d9-af0f-e238749941e9" d="m558.27,104.452c-.365.019-.72-.126-.968-.396-.236-.266-.362-.612-.353-.968-.009-1.036.428-2.026,1.199-2.718.769-.743,1.802-1.151,2.871-1.133,1.133-.043,2.245.32,3.135,1.023.822.671,1.367,1.624,1.529,2.673.028.241.043.483.044.726-.003.86-.272,1.698-.77,2.398-.723.941-1.557,1.791-2.485,2.53-.528.454-1.262,1.129-2.2,2.023l-1.298,1.232,1.672.021c1.226.049,2.453.012,3.674-.109.059-.015.132-.169.22-.463.13-.492.233-.991.309-1.495v-.066h.88v.066l-.616,4.025v.066h-8.162v-.418c-.015-.17,0-.341.044-.506.015-.015.631-.712,1.849-2.091,1.598-1.774,2.624-2.948,3.079-3.52.868-1.037,1.385-2.324,1.475-3.674.03-.873-.237-1.731-.759-2.432-.506-.653-1.298-1.018-2.123-.979-.842-.005-1.625.428-2.068,1.144-.029.06-.073.14-.132.242-.028.041-.051.085-.066.132,0,.015.037.022.11.022.342-.011.67.135.891.396.224.255.346.585.342.925.007.347-.123.683-.363.935-.249.26-.598.4-.958.385Z"/><path class="uuid-d63fd163-3a6a-47d9-af0f-e238749941e9" d="m568.566,112.57c-.023-.706.531-1.297,1.237-1.32.027,0,.055,0,.083,0,.359-.009.705.131.957.386.249.238.388.569.385.913.005.735-.587,1.335-1.323,1.34-.733.005-1.332-.585-1.34-1.318h0Z"/><path class="uuid-d63fd163-3a6a-47d9-af0f-e238749941e9" d="m582.118,113.89c-.249-.044-1.415-.066-3.498-.066-2.053,0-3.204.022-3.453.066h-.265v-1.013h.572c.551.015,1.102-.007,1.65-.065.192-.05.372-.14.527-.264v-11.374c-.062.011-.122.033-.176.065-.724.273-1.492.415-2.266.418h-.418v-1.012h.418c1.082-.002,2.145-.291,3.08-.836.25-.136.479-.306.682-.506.029-.044.117-.066.264-.066.137-.004.27.043.374.132v6.578l.022,6.601c.423.276.929.392,1.43.329h1.298v1.013h-.242Z"/><path class="uuid-d63fd163-3a6a-47d9-af0f-e238749941e9" d="m596.749,100.03c-.801.366-1.671.553-2.552.55-1.012-.006-2.01-.231-2.927-.66-.045-.014-.089-.033-.132-.055-.044-.021-.081-.04-.11-.055l-.044-.022c.018.067.04.134.066.198.16.603.234,1.225.22,1.848.046,1.126-.254,2.239-.857,3.19-.402.737-1.164,1.206-2.003,1.232-.52-.021-1.023-.189-1.451-.484-1.229-.92-1.895-2.409-1.761-3.938-.031-1.049.253-2.083.814-2.97.435-.747,1.174-1.269,2.023-1.43.123-.023.248-.038.374-.044.585.006,1.142.252,1.54.682.962.885,2.164,1.467,3.455,1.672.256.021.513.029.769.022.425,0,.69-.008.792-.022,1.316-.191,2.502-.895,3.3-1.958.038-.04.071-.084.1-.132.022-.039.048-.075.076-.11.02-.02.039-.042.056-.065.016-.025.039-.044.065-.055.029-.009.058-.017.088-.022.04-.007.081-.011.121-.011.128-.002.249.055.33.153.088.103.128.239.11.374-7.554,11.338-11.389,17.043-11.506,17.116-.058.058-.138.09-.221.088-.119,0-.234-.048-.318-.132-.091-.077-.143-.189-.144-.308.004-.071.027-.139.066-.198.015-.044,1.635-2.471,4.862-7.282,1.554-2.317,2.745-4.092,3.574-5.324.829-1.232,1.236-1.848,1.221-1.847Zm-7.393-1.386c-.258-.27-.616-.421-.99-.418-.319.013-.617.166-.813.418-.287.339-.477.749-.55,1.188-.102.662-.147,1.332-.133,2.002-.015.678.034,1.355.144,2.024.072.439.275.845.583,1.166.213.24.515.383.836.396h.088c.324-.021.625-.172.836-.418,1.379-1.895,1.379-4.463,0-6.357h0Zm5.61,12.034c-.032-1.046.252-2.077.815-2.959.438-.743,1.176-1.26,2.023-1.419.131-.025.263-.039.396-.044.822.042,1.567.497,1.98,1.21.603.96.902,2.079.858,3.212.048,1.133-.252,2.254-.858,3.212-.402.737-1.164,1.205-2.002,1.231-.52-.021-1.023-.188-1.452-.483-1.232-.927-1.897-2.425-1.76-3.96h0Zm4.158-3.168c-.258-.27-.617-.421-.99-.418-.32.013-.618.166-.815.418-.285.319-.475.712-.55,1.133-.089.675-.125,1.355-.109,2.035-.02.669.016,1.339.109,2.002.063.667.461,1.255,1.057,1.562.122.034.248.048.374.044h.088c.323-.021.625-.172.836-.418,1.379-1.895,1.379-4.463,0-6.357Z"/><path class="uuid-d63fd163-3a6a-47d9-af0f-e238749941e9" d="m32.124,104.453c-.366.019-.721-.126-.968-.396-.236-.266-.362-.612-.353-.968-.009-1.036.428-2.026,1.199-2.717.769-.744,1.802-1.151,2.871-1.133,1.133-.042,2.245.32,3.135,1.022.822.672,1.367,1.624,1.529,2.673.028.241.043.484.044.727-.003.86-.272,1.697-.771,2.397-.722.941-1.557,1.791-2.485,2.53-.528.455-1.262,1.13-2.2,2.024l-1.298,1.231,1.672.022c1.226.049,2.453.012,3.674-.11.058-.015.132-.168.22-.462.13-.493.233-.992.309-1.496v-.066h.88v.066l-.616,4.026v.065h-8.163v-.418c-.015-.17,0-.341.044-.506.015-.015.631-.711,1.849-2.09,1.598-1.774,2.624-2.948,3.079-3.52.869-1.037,1.385-2.324,1.475-3.674.03-.873-.237-1.73-.759-2.431-.506-.653-1.298-1.018-2.123-.979-.842-.005-1.626.428-2.068,1.145-.029.059-.073.14-.132.242-.029.04-.051.085-.066.132,0,.015.037.021.11.021.342-.011.67.135.891.396.224.255.346.584.342.924.008.347-.123.684-.363.935-.249.26-.597.4-.957.385Z"/><path class="uuid-d63fd163-3a6a-47d9-af0f-e238749941e9" d="m42.419,112.571c-.023-.706.531-1.297,1.237-1.32.028,0,.055,0,.083,0,.358-.009.704.13.957.385.248.239.388.569.385.913.006.735-.585,1.336-1.32,1.342-.735.006-1.336-.585-1.342-1.32h0Z"/><path class="uuid-d63fd163-3a6a-47d9-af0f-e238749941e9" d="m55.971,113.89c-.249-.044-1.415-.066-3.498-.065-2.053,0-3.204.022-3.453.065h-.265v-1.012h.572c.551.015,1.102-.008,1.65-.066.192-.05.372-.139.527-.264v-11.374c-.062.012-.122.034-.176.066-.724.273-1.492.415-2.266.418h-.418v-1.013h.418c1.082-.002,2.145-.291,3.08-.836.25-.136.479-.306.682-.506.029-.044.117-.065.264-.065.137-.004.27.043.374.132v6.578l.022,6.6c.422.276.929.393,1.43.33h1.298v1.011h-.242Z"/><path class="uuid-d63fd163-3a6a-47d9-af0f-e238749941e9" d="m70.602,100.031c-.801.365-1.672.553-2.552.55-1.012-.006-2.01-.231-2.927-.66-.045-.015-.089-.034-.132-.055-.044-.022-.081-.041-.11-.056l-.044-.021c.018.067.04.134.066.198.16.603.234,1.225.22,1.848.046,1.126-.253,2.238-.857,3.189-.402.737-1.164,1.206-2.003,1.232-.52-.021-1.023-.189-1.451-.484-1.229-.919-1.895-2.409-1.761-3.938-.031-1.049.253-2.083.814-2.97.435-.747,1.174-1.269,2.023-1.431.123-.023.248-.038.374-.044.585.006,1.143.253,1.54.683.962.886,2.164,1.467,3.455,1.672.256.021.513.028.77.021.425,0,.69-.007.792-.021,1.315-.191,2.502-.895,3.3-1.958.038-.04.071-.084.1-.132.022-.039.048-.076.076-.11.02-.021.039-.043.056-.066.016-.024.039-.043.065-.055.029-.009.058-.016.088-.021.04-.008.08-.012.121-.012.128-.002.25.055.33.154.088.103.128.239.11.374-7.554,11.338-11.389,17.043-11.506,17.116-.058.058-.138.09-.221.088-.119,0-.234-.048-.318-.132-.091-.077-.143-.19-.144-.309.004-.071.027-.139.066-.197.015-.045,1.635-2.472,4.862-7.282,1.554-2.317,2.745-4.092,3.574-5.324s1.236-1.848,1.221-1.848Zm-7.393-1.387c-.258-.27-.616-.421-.99-.418-.319.013-.617.166-.813.418-.287.34-.477.75-.55,1.188-.102.662-.147,1.332-.133,2.002-.015.677.034,1.355.144,2.023.072.439.275.845.583,1.166.213.241.515.384.836.396h.088c.324-.021.625-.172.836-.418,1.379-1.895,1.379-4.463,0-6.358Zm5.61,12.034c-.032-1.046.252-2.077.814-2.959.439-.742,1.176-1.259,2.023-1.419.131-.025.263-.039.396-.044.822.042,1.567.497,1.98,1.21.603.96.902,2.079.858,3.212.048,1.133-.252,2.254-.858,3.212-.402.737-1.163,1.206-2.002,1.232-.52-.021-1.024-.189-1.452-.484-1.232-.927-1.897-2.425-1.76-3.96h0Zm4.158-3.168c-.258-.27-.617-.421-.99-.418-.32.013-.618.166-.814.418-.284.32-.475.712-.55,1.133-.089.675-.125,1.355-.109,2.035-.02.669.016,1.339.109,2.002.063.667.461,1.256,1.057,1.562.122.034.248.048.374.044h.088c.323-.021.625-.172.836-.418,1.379-1.895,1.379-4.463,0-6.358h0Z"/><path class="uuid-d63fd163-3a6a-47d9-af0f-e238749941e9" d="m454.351,113.89c-.249-.044-1.415-.066-3.498-.066-2.053,0-3.204.022-3.453.066h-.264v-1.013h.571c.551.015,1.102-.007,1.65-.065.193-.05.372-.14.528-.264v-11.374c-.062.011-.122.033-.177.065-.724.273-1.492.415-2.266.418h-.418v-1.012h.418c1.082-.002,2.145-.291,3.08-.836.25-.136.479-.306.682-.506.029-.044.117-.066.265-.066.136-.004.269.043.373.132v6.578l.022,6.601c.423.276.93.392,1.431.329h1.297v1.013h-.242Z"/><path class="uuid-d63fd163-3a6a-47d9-af0f-e238749941e9" d="m458.994,103.704c-.352.018-.694-.118-.936-.374-.233-.267-.355-.614-.34-.968-.01-.815.355-1.589.989-2.101.644-.557,1.442-.906,2.288-1.001h.33c.514,0,.836.007.969.021.511.082,1.007.237,1.473.462.884.387,1.552,1.144,1.826,2.068.05.194.073.394.066.594.008.843-.276,1.663-.803,2.321-.518.669-1.217,1.177-2.014,1.463-.073.029-.073.052,0,.066.072.028.146.049.221.065.874.237,1.661.722,2.266,1.397.594.626.925,1.457.924,2.32,0,.604-.144,1.2-.418,1.738-.378.777-.979,1.424-1.727,1.859-.804.492-1.731.747-2.674.736-.896.017-1.782-.195-2.573-.615-.69-.347-1.23-.934-1.518-1.65-.153-.338-.228-.707-.22-1.078-.014-.377.134-.741.407-1.001.564-.517,1.431-.512,1.99.011.263.261.407.619.397.99.006.317-.094.627-.285.88-.19.249-.463.421-.77.484l-.154.044c.76.648,1.729,1,2.728.99.787.013,1.506-.446,1.826-1.166.291-.703.419-1.463.375-2.223v-.439c.138-1.13-.418-2.233-1.408-2.794-.437-.117-.889-.169-1.342-.154l-.924-.021-.066-.045c-.041-.112-.056-.232-.045-.352-.015-.114.008-.23.066-.33.027-.035.067-.058.11-.065.428-.002.855-.038,1.276-.11.645-.088,1.2-.498,1.474-1.089.354-.713.528-1.503.506-2.299.098-.729-.195-1.456-.771-1.914-.305-.205-.665-.313-1.033-.309-.692-.013-1.37.195-1.936.594-.072.039-.139.087-.199.144-.064.057-.123.119-.176.187l-.066.089c.045.015.096.029.154.044.294.029.561.181.737.418.196.242.301.546.297.857.008.334-.124.657-.362.892-.249.244-.587.375-.935.362Z"/><path class="uuid-d63fd163-3a6a-47d9-af0f-e238749941e9" d="m468.916,112.57c-.023-.706.531-1.297,1.237-1.32.028,0,.055,0,.083,0,.359-.009.705.131.957.386.249.238.388.569.385.913.005.735-.587,1.335-1.323,1.34-.733.005-1.332-.585-1.34-1.318h0Z"/><path class="uuid-d63fd163-3a6a-47d9-af0f-e238749941e9" d="m481.522,100.668c-.373-.343-.858-.539-1.364-.55-1.021-.003-1.981.489-2.574,1.32-.789,1.342-1.15,2.892-1.033,4.444l.022.088.176-.286c.525-.839,1.453-1.34,2.442-1.32.62-.013,1.233.131,1.782.418.395.242.751.543,1.056.892.341.373.63.791.858,1.242.313.745.47,1.546.462,2.354v.396c.002.319-.035.637-.11.946-.21.928-.684,1.776-1.364,2.442-.559.619-1.297,1.049-2.111,1.231-.289.064-.584.094-.88.088-.251.003-.501-.019-.748-.065-1.074-.197-2.015-.836-2.596-1.76-.947-1.689-1.397-3.611-1.299-5.545-.031-1.43.254-2.85.836-4.157.503-1.124,1.311-2.085,2.332-2.772.749-.543,1.65-.835,2.574-.836.746-.035,1.479.208,2.057.682.529.474.816,1.161.781,1.87.016.324-.099.641-.319.88-.223.225-.53.345-.847.33-.312.015-.617-.096-.847-.308-.222-.229-.338-.54-.319-.858-.043-.6.409-1.121,1.009-1.164.008,0,.017-.001.025-.002Zm-.968,5.28c-.367-.506-.959-.802-1.584-.792-.491-.02-.968.163-1.32.506-.805.971-1.193,2.221-1.078,3.477-.045.91.044,1.822.264,2.706.144.435.402.822.748,1.122.346.305.793.47,1.254.462.678.035,1.326-.281,1.717-.836.227-.327.371-.705.418-1.101.068-.613.098-1.231.088-1.848v-.704c.011-.632-.019-1.264-.088-1.892-.047-.396-.191-.773-.418-1.101h0Z"/><path class="uuid-d63fd163-3a6a-47d9-af0f-e238749941e9" d="m497.098,100.03c-.801.366-1.671.553-2.552.55-1.012-.006-2.01-.231-2.927-.66-.045-.014-.09-.033-.132-.055-.044-.021-.081-.04-.11-.055l-.044-.022c.018.067.04.134.066.198.16.603.234,1.225.22,1.848.046,1.126-.254,2.239-.857,3.19-.402.737-1.163,1.206-2.002,1.232-.52-.021-1.024-.189-1.452-.484-1.229-.92-1.895-2.41-1.76-3.938-.031-1.049.252-2.083.813-2.97.436-.747,1.174-1.269,2.024-1.43.124-.024.249-.038.374-.044.585.006,1.142.253,1.54.682.961.886,2.163,1.467,3.454,1.672.256.021.513.029.77.022.425,0,.69-.008.792-.022,1.316-.191,2.502-.895,3.3-1.958.038-.04.071-.084.1-.132.022-.039.048-.075.076-.11.02-.02.039-.042.056-.065.016-.024.039-.044.065-.055.029-.009.058-.017.088-.022.04-.007.08-.011.121-.011.128-.002.249.055.33.153.088.103.128.239.11.374-7.554,11.338-11.389,17.043-11.506,17.116-.058.059-.138.09-.221.088-.119,0-.234-.048-.318-.132-.091-.077-.143-.189-.144-.308.004-.071.027-.139.066-.198.015-.044,1.635-2.471,4.862-7.282,1.554-2.317,2.745-4.092,3.574-5.324.829-1.232,1.236-1.848,1.221-1.847Zm-7.393-1.386c-.258-.27-.616-.421-.989-.418-.32.013-.618.166-.814.418-.286.339-.476.75-.55,1.188-.102.662-.146,1.332-.132,2.002-.015.678.033,1.355.143,2.024.072.439.276.845.583,1.166.213.24.515.383.836.396h.088c.324-.021.625-.172.836-.418,1.379-1.895,1.379-4.463,0-6.357h0Zm5.61,12.034c-.032-1.046.252-2.077.815-2.959.438-.743,1.176-1.26,2.023-1.419.131-.025.263-.039.397-.044.822.042,1.567.498,1.979,1.21.603.96.902,2.079.858,3.212.048,1.133-.252,2.254-.858,3.212-.402.737-1.163,1.205-2.002,1.231-.52-.021-1.023-.188-1.452-.483-1.231-.927-1.897-2.425-1.759-3.96h0Zm4.158-3.168c-.258-.27-.617-.421-.99-.418-.32.013-.618.166-.815.418-.285.319-.475.712-.55,1.133-.089.675-.125,1.355-.109,2.035-.02.669.016,1.339.109,2.002.063.667.461,1.255,1.057,1.562.122.034.248.048.374.044h.088c.323-.021.625-.172.836-.418,1.379-1.895,1.379-4.463,0-6.357Z"/><path class="uuid-d63fd163-3a6a-47d9-af0f-e238749941e9" d="m138.468,113.89c-.25-.044-1.416-.066-3.498-.065-2.053,0-3.204.022-3.453.065h-.265v-1.012h.571c.551.015,1.102-.008,1.65-.066.193-.05.373-.14.528-.264v-11.374c-.062.012-.122.034-.177.066-.724.273-1.492.415-2.266.418h-.418v-1.013h.418c1.082-.002,2.145-.29,3.08-.836.25-.135.48-.306.682-.506.029-.044.117-.065.265-.065.137-.003.27.044.374.132v6.578l.021,6.6c.423.276.93.393,1.431.33h1.298v1.011h-.242Z"/><path class="uuid-d63fd163-3a6a-47d9-af0f-e238749941e9" d="m143.111,103.705c-.352.018-.693-.119-.936-.374-.234-.267-.356-.613-.341-.968-.01-.815.355-1.59.989-2.102.644-.557,1.442-.906,2.289-1.001h.33c.513,0,.836.008.968.022.511.082,1.007.237,1.474.462.883.387,1.552,1.143,1.826,2.067.05.194.072.394.066.595.008.843-.276,1.662-.803,2.32-.518.67-1.217,1.177-2.014,1.463-.074.03-.074.052,0,.066.071.028.145.05.22.066.875.237,1.662.722,2.267,1.396.594.627.924,1.458.924,2.321,0,.604-.144,1.2-.418,1.738-.378.777-.979,1.424-1.727,1.858-.804.492-1.731.748-2.674.737-.897.017-1.783-.195-2.574-.616-.69-.346-1.23-.933-1.518-1.65-.153-.338-.229-.706-.221-1.077-.014-.377.135-.741.408-1.001.564-.518,1.432-.514,1.99.011.263.261.407.619.396.99.006.317-.094.627-.286.88-.19.249-.464.42-.77.483l-.154.044c.76.648,1.729,1,2.729.99.787.013,1.506-.446,1.826-1.166.29-.703.418-1.462.374-2.222v-.44c.138-1.13-.417-2.233-1.408-2.794-.437-.117-.889-.168-1.342-.153l-.924-.022-.066-.044c-.04-.113-.055-.233-.044-.352-.016-.114.008-.231.066-.33.027-.035.066-.058.109-.066.428-.001.855-.038,1.276-.11.645-.087,1.201-.498,1.474-1.089.355-.713.528-1.503.506-2.299.098-.729-.195-1.456-.77-1.914-.306-.204-.666-.312-1.034-.308-.692-.013-1.37.195-1.936.594-.072.039-.139.087-.198.143-.065.057-.123.119-.176.188l-.066.088c.045.015.096.029.154.044.293.029.561.181.736.418.196.243.301.546.297.858.007.334-.124.657-.362.891-.248.244-.586.376-.935.363Z"/><path class="uuid-d63fd163-3a6a-47d9-af0f-e238749941e9" d="m153.033,112.571c-.024-.705.529-1.296,1.234-1.32.029,0,.057,0,.086,0,.358-.009.704.13.957.385.248.239.387.569.385.913.004.735-.588,1.334-1.324,1.339-.732.004-1.33-.584-1.338-1.316h0Z"/><path class="uuid-d63fd163-3a6a-47d9-af0f-e238749941e9" d="m165.638,100.669c-.372-.343-.857-.539-1.363-.55-1.021-.003-1.981.488-2.574,1.319-.789,1.342-1.15,2.892-1.034,4.444l.023.088.176-.286c.525-.839,1.452-1.34,2.441-1.319.62-.013,1.233.131,1.783.418.395.241.751.542,1.055.891.342.373.631.791.859,1.243.312.745.469,1.546.461,2.354v.396c.002.319-.035.636-.109.946-.21.928-.685,1.776-1.365,2.441-.56.619-1.297,1.049-2.111,1.232-.289.064-.584.094-.88.088-.251.002-.501-.02-.748-.066-1.073-.197-2.015-.836-2.596-1.76-.947-1.689-1.397-3.611-1.298-5.544-.032-1.431.254-2.851.836-4.158.503-1.124,1.311-2.084,2.332-2.771.748-.543,1.649-.836,2.574-.836.746-.035,1.479.208,2.057.682.529.474.816,1.161.781,1.87.015.324-.1.641-.32.88-.223.224-.53.344-.846.33-.312.015-.618-.096-.848-.309-.222-.228-.337-.54-.318-.857-.044-.599.406-1.12,1.005-1.164.009,0,.019-.001.028-.002Zm-.967,5.28c-.368-.506-.959-.802-1.585-.792-.491-.02-.968.163-1.319.506-.805.97-1.193,2.22-1.078,3.476-.045.91.044,1.822.264,2.706.143.435.402.823.748,1.122.345.306.793.47,1.254.462.678.035,1.326-.281,1.717-.836.227-.327.37-.705.418-1.1.068-.614.098-1.231.088-1.849v-.703c.01-.632-.019-1.264-.088-1.892-.048-.395-.191-.772-.418-1.1h0Z"/><path class="uuid-d63fd163-3a6a-47d9-af0f-e238749941e9" d="m181.214,100.031c-.801.365-1.671.553-2.551.55-1.012-.006-2.011-.231-2.928-.66-.045-.015-.089-.034-.131-.055l-.111-.056-.043-.021c.017.068.039.134.066.198.159.603.233,1.225.219,1.848.046,1.126-.253,2.239-.857,3.189-.401.737-1.163,1.206-2.002,1.232-.52-.02-1.023-.188-1.451-.484-1.229-.919-1.895-2.409-1.76-3.938-.031-1.049.252-2.083.812-2.97.436-.747,1.175-1.269,2.025-1.431.123-.024.248-.038.373-.044.586.006,1.143.253,1.541.683.961.886,2.162,1.467,3.453,1.672.256.021.513.028.77.021.426,0,.69-.007.793-.021,1.315-.192,2.501-.896,3.299-1.958.038-.04.071-.084.1-.132.023-.038.048-.075.076-.11.021-.021.039-.043.057-.066.016-.024.038-.043.064-.055.023-.007.053-.015.088-.021.04-.008.08-.012.121-.012.128-.002.25.055.33.154.088.103.129.239.111.374-7.555,11.338-11.39,17.043-11.506,17.116-.058.058-.138.09-.221.088-.119,0-.234-.048-.318-.132-.091-.077-.144-.19-.145-.309.004-.07.027-.139.066-.197.016-.045,1.637-2.472,4.863-7.282,1.553-2.317,2.744-4.092,3.574-5.324.828-1.233,1.235-1.849,1.221-1.848Zm-7.393-1.387c-.257-.27-.615-.421-.988-.418-.32.012-.618.165-.814.418-.287.339-.477.75-.551,1.188-.101.662-.145,1.332-.131,2.002-.015.677.033,1.355.143,2.023.072.438.275.845.582,1.166.213.241.515.384.836.396h.088c.324-.021.625-.172.836-.418,1.38-1.895,1.38-4.464,0-6.358Zm5.611,12.034c-.032-1.046.252-2.077.814-2.959.438-.743,1.176-1.26,2.023-1.419.131-.025.263-.039.396-.044.822.042,1.566.498,1.979,1.21.603.96.903,2.079.859,3.212.047,1.133-.252,2.254-.859,3.212-.401.737-1.163,1.206-2.002,1.232-.52-.021-1.023-.189-1.451-.484-1.232-.927-1.898-2.424-1.76-3.96Zm4.158-3.168c-.258-.27-.617-.421-.99-.418-.32.013-.618.166-.814.418-.284.32-.475.712-.551,1.133-.088.675-.125,1.355-.109,2.035-.02.669.017,1.339.109,2.002.063.667.461,1.255,1.057,1.562.122.034.248.048.375.044h.088c.323-.022.625-.172.836-.418,1.378-1.896,1.378-4.463,0-6.358h0Z"/><path class="uuid-d63fd163-3a6a-47d9-af0f-e238749941e9" d="m342.865,103.705c-.352.018-.693-.119-.936-.374-.233-.267-.355-.614-.34-.968-.01-.815.355-1.59.989-2.102.644-.558,1.442-.907,2.289-1.001h.33c.514,0,.836.008.969.022.511.082,1.007.237,1.473.462.884.386,1.552,1.143,1.826,2.067.05.194.073.394.066.595.008.843-.276,1.662-.803,2.32-.518.67-1.217,1.177-2.014,1.463-.073.03-.073.052,0,.066.072.028.145.05.221.066.874.237,1.661.722,2.266,1.396.594.627.925,1.458.924,2.321,0,.604-.144,1.2-.418,1.738-.379.777-.98,1.424-1.727,1.858-.804.493-1.731.748-2.674.737-.896.017-1.782-.195-2.573-.616-.69-.347-1.23-.933-1.518-1.65-.153-.338-.228-.706-.22-1.077-.014-.377.134-.741.407-1.001.564-.518,1.432-.514,1.99.011.263.261.407.619.397.99.006.317-.094.627-.285.88-.19.248-.464.42-.771.483l-.154.044c.76.648,1.729,1,2.728.99.787.013,1.506-.446,1.826-1.166.291-.703.419-1.462.375-2.222v-.44c.138-1.13-.418-2.232-1.408-2.794-.437-.116-.889-.168-1.342-.153l-.924-.022-.066-.044c-.041-.112-.056-.233-.045-.352-.015-.114.008-.23.066-.33.027-.035.066-.058.11-.066.428-.001.855-.038,1.276-.11.645-.087,1.201-.498,1.474-1.089.354-.713.528-1.503.506-2.299.098-.729-.195-1.456-.77-1.914-.305-.204-.666-.312-1.033-.308-.692-.013-1.37.195-1.936.594-.072.039-.139.087-.199.143-.064.057-.123.12-.176.188l-.066.088c.045.015.096.029.154.044.294.03.561.181.737.418.196.243.301.546.297.858.007.334-.124.657-.362.891-.249.245-.587.376-.935.363Z"/><path class="uuid-d63fd163-3a6a-47d9-af0f-e238749941e9" d="m361.235,113.89c-.206-.044-1.152-.066-2.838-.065-1.761,0-2.744.022-2.948.065h-.197v-1.012h.682c.392.013.784-.024,1.166-.11.117-.029.214-.11.264-.22.015-.029.022-.425.022-1.188v-1.101h-5.697v-1.012l3.322-5.082c2.244-3.402,3.381-5.111,3.41-5.126.149-.046.306-.061.461-.044h.397l.132.132v10.12h2.024v1.012h-2.024v1.122c0,.602.003.954.011,1.056.006.1.049.194.121.265.399.154.828.214,1.254.176h.639v1.012h-.198Zm-3.718-4.642v-7.348l-4.818,7.326,2.398.022h2.42Z"/><path class="uuid-d63fd163-3a6a-47d9-af0f-e238749941e9" d="m363.787,112.571c-.023-.706.531-1.297,1.237-1.32.028,0,.055,0,.083,0,.358-.009.705.13.957.385.248.239.387.569.385.913.006.735-.585,1.336-1.32,1.342-.735.006-1.336-.585-1.342-1.32h0Z"/><path class="uuid-d63fd163-3a6a-47d9-af0f-e238749941e9" d="m377.339,113.89c-.25-.044-1.416-.066-3.498-.065-2.054,0-3.205.022-3.454.065h-.265v-1.012h.572c.551.015,1.102-.008,1.65-.066.192-.05.372-.139.527-.264v-11.374c-.062.012-.122.034-.176.066-.724.273-1.492.415-2.266.418h-.418v-1.013h.418c1.082-.002,2.145-.291,3.08-.836.25-.136.479-.306.682-.506.029-.044.117-.065.264-.065.137-.004.27.043.374.132v6.578l.022,6.6c.423.276.929.393,1.43.33h1.298v1.011h-.241Z"/><path class="uuid-d63fd163-3a6a-47d9-af0f-e238749941e9" d="m391.969,100.031c-.801.365-1.671.553-2.552.55-1.012-.006-2.01-.231-2.927-.66-.045-.015-.089-.034-.132-.055-.044-.022-.081-.041-.11-.056l-.044-.021c.018.067.04.134.066.198.16.603.234,1.225.22,1.848.046,1.126-.253,2.238-.857,3.189-.401.737-1.163,1.206-2.002,1.232-.52-.021-1.024-.189-1.452-.484-1.229-.919-1.895-2.409-1.76-3.938-.031-1.049.252-2.083.814-2.97.436-.747,1.174-1.269,2.024-1.431.124-.024.249-.038.374-.044.585.006,1.142.253,1.54.683.961.886,2.163,1.467,3.454,1.672.256.021.513.028.77.021.425,0,.69-.007.792-.021,1.315-.191,2.502-.895,3.3-1.958.038-.04.071-.084.1-.132.022-.039.048-.076.076-.11.02-.021.039-.043.056-.066.016-.024.039-.043.065-.055.029-.009.058-.016.088-.021.04-.008.08-.012.121-.012.128-.002.25.055.33.154.088.103.128.239.11.374-7.554,11.338-11.389,17.043-11.506,17.116-.058.058-.138.09-.221.088-.119,0-.234-.048-.318-.132-.091-.077-.143-.19-.144-.309.004-.071.027-.139.066-.197.015-.045,1.635-2.472,4.862-7.282,1.554-2.317,2.745-4.092,3.574-5.324.829-1.232,1.236-1.848,1.221-1.848Zm-7.392-1.387c-.258-.27-.616-.421-.99-.418-.32.013-.618.166-.814.418-.286.34-.476.75-.55,1.188-.102.662-.146,1.332-.132,2.002-.015.677.033,1.355.143,2.023.072.439.276.845.583,1.166.213.241.515.384.836.396h.088c.324-.021.625-.172.836-.418,1.379-1.895,1.379-4.463,0-6.358h0Zm5.61,12.034c-.032-1.046.252-2.077.815-2.959.439-.742,1.176-1.259,2.023-1.419.131-.025.263-.039.397-.044.822.042,1.567.498,1.979,1.21.603.96.902,2.079.858,3.212.048,1.133-.252,2.254-.858,3.212-.402.737-1.163,1.206-2.002,1.232-.52-.021-1.023-.189-1.452-.484-1.232-.927-1.897-2.425-1.76-3.96h0Zm4.158-3.168c-.258-.27-.617-.421-.99-.418-.32.013-.618.166-.815.418-.284.32-.475.712-.55,1.133-.089.675-.125,1.355-.109,2.035-.02.669.016,1.339.109,2.002.063.667.461,1.256,1.057,1.562.122.034.248.048.374.044h.088c.323-.021.625-.172.836-.418,1.379-1.895,1.379-4.463,0-6.358Z"/><path class="uuid-d63fd163-3a6a-47d9-af0f-e238749941e9" d="m237.287,103.704c-.352.019-.694-.118-.936-.374-.234-.267-.356-.613-.341-.968-.01-.815.355-1.589.99-2.101.644-.557,1.442-.906,2.288-1.001h.33c.513,0,.836.007.968.021.511.082,1.007.237,1.474.462.884.387,1.552,1.144,1.826,2.068.05.194.072.394.066.594.008.843-.276,1.663-.803,2.321-.518.669-1.217,1.177-2.014,1.463-.073.029-.073.052,0,.066.071.028.145.05.22.065.875.237,1.662.722,2.267,1.397.594.626.925,1.457.924,2.32,0,.604-.144,1.2-.418,1.738-.378.777-.979,1.424-1.727,1.859-.804.492-1.731.747-2.674.736-.896.017-1.782-.194-2.573-.615-.69-.347-1.23-.934-1.519-1.65-.153-.338-.228-.707-.22-1.078-.014-.377.134-.741.407-1.001.564-.517,1.431-.512,1.99.011.263.261.407.619.396.99.007.317-.094.627-.286.88-.189.249-.463.421-.77.484l-.154.044c.76.648,1.729,1,2.727.99.788.013,1.506-.446,1.826-1.166.29-.703.418-1.463.374-2.223v-.439c.138-1.13-.417-2.233-1.408-2.794-.437-.117-.889-.169-1.342-.154l-.924-.021-.066-.045c-.04-.113-.055-.233-.044-.352-.015-.114.008-.23.066-.33.027-.035.066-.058.11-.065.427-.001.854-.038,1.275-.11.645-.088,1.201-.498,1.475-1.089.354-.713.528-1.503.506-2.299.098-.729-.194-1.456-.77-1.914-.305-.205-.666-.313-1.034-.309-.692-.013-1.37.195-1.936.594-.072.039-.139.087-.198.144-.064.057-.123.119-.176.187l-.066.089c.045.015.096.029.154.044.294.029.561.181.737.418.196.242.301.546.297.857.007.335-.124.657-.363.892-.248.244-.586.375-.934.362Z"/><path class="uuid-d63fd163-3a6a-47d9-af0f-e238749941e9" d="m255.657,113.89c-.206-.044-1.152-.066-2.838-.066-1.761,0-2.744.022-2.948.066h-.198v-1.013h.682c.392.013.784-.024,1.166-.109.117-.029.215-.11.265-.22.015-.029.022-.425.021-1.188v-1.1h-5.697v-1.013l3.321-5.082c2.244-3.402,3.381-5.111,3.41-5.126.149-.046.307-.061.462-.044h.396l.132.132v10.12h2.023v1.013h-2.023v1.122c0,.602.003.953.011,1.056.006.1.05.194.121.264.399.154.828.214,1.254.176h.638v1.013h-.197Zm-3.719-4.643v-7.347l-4.817,7.326,2.398.021h2.42Z"/><path class="uuid-d63fd163-3a6a-47d9-af0f-e238749941e9" d="m258.209,112.57c-.023-.706.531-1.297,1.237-1.32.028,0,.055,0,.083,0,.359-.009.705.131.957.386.249.238.388.569.385.913.005.735-.587,1.335-1.323,1.34-.733.005-1.332-.585-1.34-1.318h0Z"/><path class="uuid-d63fd163-3a6a-47d9-af0f-e238749941e9" d="m271.761,113.89c-.25-.044-1.416-.066-3.499-.066-2.053,0-3.204.022-3.453.066h-.265v-1.013h.572c.551.015,1.102-.007,1.65-.065.192-.05.372-.14.527-.264v-11.374c-.062.011-.122.033-.176.065-.724.273-1.492.415-2.266.418h-.418v-1.012h.418c1.082-.002,2.145-.291,3.08-.836.25-.136.479-.306.682-.506.029-.044.117-.066.264-.066.137-.004.27.043.374.132v6.578l.022,6.601c.423.276.929.392,1.43.329h1.298v1.013h-.241Z"/><path class="uuid-d63fd163-3a6a-47d9-af0f-e238749941e9" d="m286.391,100.03c-.801.366-1.671.553-2.552.55-1.012-.006-2.01-.231-2.927-.66-.045-.014-.09-.033-.132-.055-.044-.021-.081-.04-.11-.055l-.044-.022c.018.067.04.134.066.198.16.603.234,1.225.22,1.848.046,1.126-.254,2.239-.857,3.19-.402.737-1.163,1.206-2.002,1.232-.52-.021-1.023-.189-1.452-.484-1.229-.92-1.895-2.41-1.76-3.938-.031-1.049.252-2.083.814-2.97.436-.747,1.174-1.269,2.024-1.43.123-.024.248-.038.374-.044.585.006,1.142.253,1.54.682.961.886,2.163,1.467,3.454,1.672.256.021.513.029.77.022.425,0,.69-.008.792-.022,1.316-.191,2.502-.895,3.3-1.958.038-.04.071-.084.1-.132.022-.039.048-.075.076-.11.02-.02.039-.042.056-.065.016-.025.039-.044.065-.055.029-.009.058-.017.088-.022.04-.007.08-.011.121-.011.128-.002.249.055.33.153.088.104.128.239.11.374-7.554,11.338-11.389,17.043-11.506,17.116-.058.059-.138.09-.221.088-.119,0-.233-.048-.318-.132-.091-.077-.143-.189-.144-.308.004-.071.027-.139.066-.198.015-.044,1.635-2.471,4.862-7.282,1.554-2.317,2.745-4.092,3.574-5.324.829-1.232,1.236-1.848,1.221-1.847Zm-7.393-1.386c-.258-.27-.616-.421-.989-.418-.32.013-.618.166-.815.418-.286.339-.476.75-.55,1.188-.102.662-.146,1.332-.132,2.002-.015.678.033,1.355.143,2.024.072.439.276.845.583,1.166.213.24.515.383.836.396h.088c.324-.021.625-.172.836-.418,1.379-1.895,1.379-4.463,0-6.357h0Zm5.61,12.034c-.032-1.046.252-2.077.815-2.959.438-.743,1.176-1.26,2.023-1.419.131-.025.263-.039.397-.044.822.042,1.567.498,1.979,1.21.603.96.902,2.079.858,3.212.048,1.133-.252,2.254-.858,3.212-.402.737-1.163,1.205-2.002,1.231-.52-.021-1.023-.188-1.452-.483-1.231-.927-1.897-2.425-1.759-3.96h0Zm4.158-3.168c-.258-.27-.617-.421-.99-.418-.32.013-.618.166-.815.418-.285.319-.475.712-.55,1.133-.089.675-.125,1.355-.109,2.035-.02.669.016,1.339.109,2.002.063.667.461,1.255,1.057,1.562.122.034.248.048.374.044h.088c.323-.021.625-.172.836-.418,1.379-1.895,1.379-4.463,0-6.357Z"/><rect class="uuid-0abb63ef-1c1c-456a-8d2a-b74d585523d4" x="287.127" y="13.36" width="57.745" height="23.309"/><rect class="uuid-0abb63ef-1c1c-456a-8d2a-b74d585523d4" x="347.079" y="38.096" width="51.22" height="23.309" rx="7.026" ry="7.026"/><path class="uuid-d63fd163-3a6a-47d9-af0f-e238749941e9" d="m352.878,55.665c-.835.035-1.645-.293-2.22-.899-.565-.614-.867-1.426-.84-2.261.012-.76.182-1.509.5-2.199.336-.732.804-1.397,1.38-1.96.541-.539,1.188-.962,1.9-1.24.345-.139.709-.227,1.08-.26.013-.014.946-.02,2.8-.02h2.76c.234.11.388.342.4.601.019.387-.242.733-.62.819-.432.043-.867.056-1.301.04h-1.199l.1.2c.246.533.369,1.114.36,1.7,0,1.491-.614,2.917-1.7,3.939-.701.721-1.598,1.222-2.58,1.44-.269.062-.544.096-.82.1Zm3.54-5.779c0-1.067-.567-1.601-1.7-1.6-.771-.018-1.513.295-2.039.86-.634.792-1.048,1.737-1.2,2.74-.095.4-.149.809-.16,1.22-.026.481.127.955.43,1.33.31.336.754.516,1.21.49.763-.02,1.483-.361,1.98-.94.638-.758,1.072-1.667,1.26-2.64.125-.477.199-.967.219-1.46h0Z"/><path class="uuid-d63fd163-3a6a-47d9-af0f-e238749941e9" d="m366.739,48.505c.003-.178.114-.336.28-.399h12.739c.174.057.294.216.301.399-.015.169-.123.316-.28.381l-6.36.02h-6.359c-.191-.037-.326-.207-.321-.401Zm0,3.881c-.005-.194.13-.363.32-.4h12.72c.028.026.058.049.09.07.036.024.069.051.1.08.026.029.046.063.06.1.02.047.03.098.03.15-.007.183-.127.343-.301.4h-12.739c-.167-.063-.278-.222-.28-.4Z"/><path class="uuid-d63fd163-3a6a-47d9-af0f-e238749941e9" d="m394.5,55.445c-.228-.04-1.288-.06-3.181-.06-1.866,0-2.913.02-3.14.06h-.24v-.92h.521c.501.013,1.002-.007,1.5-.061.175-.045.338-.126.479-.239v-10.34c-.056.01-.111.031-.16.06-.658.249-1.356.378-2.06.38h-.38v-.92h.38c.984-.002,1.95-.264,2.8-.76.227-.124.435-.279.62-.46.026-.04.106-.061.24-.061.124-.003.245.04.34.12v5.98l.02,6c.384.251.845.357,1.301.3h1.18v.92h-.22Z"/><path class="uuid-d63fd163-3a6a-47d9-af0f-e238749941e9" d="m300.912,21.597c.172-.005.341.048.48.15.134.101.209.262.2.43l-1.52,6.36c-.017.106-.023.212-.021.319,0,.561.187.841.56.841.147-.025.284-.087.4-.181.419-.568.7-1.225.82-1.92.08-.267.147-.407.2-.42.065-.018.132-.024.199-.02h.08c.08-.002.16.001.24.01.038.006.073.023.1.05.029.033.044.076.04.12-.011.102-.031.202-.06.3-.162.851-.533,1.648-1.08,2.32-.184.18-.402.322-.64.42-.158.031-.319.045-.48.04-.731.061-1.427-.326-1.76-.98-.044-.075-.078-.155-.1-.239,0-.027-.067.026-.2.159-.605.669-1.458,1.059-2.36,1.08-.649.011-1.29-.148-1.86-.46-.147.587-.306,1.233-.479,1.941-.28,1.093-.447,1.729-.5,1.91-.043.161-.125.309-.24.43-.184.175-.426.275-.68.28-.175.003-.346-.057-.48-.17-.13-.107-.21-.263-.22-.431,0-.133.49-2.146,1.47-6.04.98-3.893,1.49-5.879,1.53-5.96.151-.368.524-.595.92-.56.164.01.32.069.45.17.126.098.197.251.19.41,0,.16-.206,1.053-.619,2.68-.414,1.627-.634,2.54-.66,2.74-.033.232-.046.466-.04.7,0,1.08.447,1.62,1.34,1.62.238-.002.475-.042.7-.12.677-.281,1.24-.781,1.6-1.42l.101-.141.72-2.859c.48-1.893.746-2.9.8-3.021.145-.342.488-.557.859-.539Z"/><path class="uuid-d63fd163-3a6a-47d9-af0f-e238749941e9" d="m309.271,23.277c.003-.178.114-.336.28-.399h12.739c.174.057.294.217.301.399-.015.169-.123.316-.28.381l-6.36.02h-6.359c-.19-.037-.326-.206-.321-.4Zm0,3.881c-.005-.194.13-.363.32-.4h12.72c.028.026.058.049.09.07.036.024.069.05.1.08.026.029.046.063.06.1.02.047.03.098.03.15-.007.183-.127.342-.301.399h-12.739c-.167-.063-.278-.221-.28-.399Z"/><path class="uuid-d63fd163-3a6a-47d9-af0f-e238749941e9" d="m330.631,18.517c.667-1.038,1.827-1.652,3.06-1.62.95-.009,1.867.349,2.56,1,.39.391.702.852.92,1.36.554,1.454.806,3.005.74,4.56.087,1.625-.208,3.249-.86,4.74-.334.734-.914,1.328-1.64,1.68-.526.272-1.108.416-1.7.421-1.445.055-2.777-.778-3.36-2.101-.652-1.491-.946-3.115-.859-4.74-.018-1.029.065-2.057.25-3.069.16-.791.461-1.547.889-2.231Zm4.5-.24c-.356-.412-.875-.646-1.42-.64-.55-.004-1.074.229-1.44.64-.296.313-.504.7-.6,1.12-.137.752-.204,1.515-.2,2.28,0,.08-.003.34-.01.78-.007.44-.01.807-.01,1.1,0,1.28.013,2.173.04,2.68.02.676.1,1.349.239,2.011.102.398.309.761.601,1.05.348.395.854.615,1.38.6.52.012,1.018-.208,1.36-.6.291-.289.499-.652.6-1.05.139-.662.219-1.335.24-2.011.027-.506.04-1.399.04-2.68,0-.293-.004-.66-.01-1.1-.008-.44-.011-.7-.011-.78.005-.765-.062-1.528-.2-2.28-.096-.42-.303-.807-.599-1.12h0Z"/></g></g><line class="uuid-1e529ffc-42ef-4a51-b620-184ebf4cd5d0" x1=".368" y1=".5" x2="631.398" y2=".5"/></svg>